<svg xmlns="http://www.w3.org/2000/svg" viewBox="0 0 32 32" fill="none">
  <rect width="32" height="32" rx="8" fill="#020817"/>
  <!-- Outer ring -->
  <circle cx="16" cy="16" r="14" stroke="#00f5ff" stroke-width="0.8" opacity="0.4"/>
  <!-- Neural connections -->
  <line x1="16" y1="4" x2="16" y2="13" stroke="#00f5ff" stroke-width="1" opacity="0.7"/>
  <line x1="4" y1="16" x2="13" y2="16" stroke="#a855f7" stroke-width="1" opacity="0.7"/>
  <line x1="19" y1="16" x2="28" y2="16" stroke="#a855f7" stroke-width="1" opacity="0.7"/>
  <line x1="16" y1="19" x2="16" y2="28" stroke="#00f5ff" stroke-width="1" opacity="0.7"/>
  <line x1="7" y1="7" x2="13.2" y2="13.2" stroke="#22d3ee" stroke-width="0.8" opacity="0.6"/>
  <line x1="25" y1="7" x2="18.8" y2="13.2" stroke="#22d3ee" stroke-width="0.8" opacity="0.6"/>
  <line x1="7" y1="25" x2="13.2" y2="18.8" stroke="#22d3ee" stroke-width="0.8" opacity="0.6"/>
  <line x1="25" y1="25" x2="18.8" y2="18.8" stroke="#22d3ee" stroke-width="0.8" opacity="0.6"/>
  <!-- Outer nodes -->
  <circle cx="16" cy="4" r="2" fill="#00f5ff" opacity="0.9"/>
  <circle cx="4" cy="16" r="2" fill="#a855f7" opacity="0.9"/>
  <circle cx="28" cy="16" r="2" fill="#a855f7" opacity="0.9"/>
  <circle cx="16" cy="28" r="2" fill="#00f5ff" opacity="0.9"/>
  <circle cx="7" cy="7" r="1.5" fill="#22d3ee" opacity="0.8"/>
  <circle cx="25" cy="7" r="1.5" fill="#22d3ee" opacity="0.8"/>
  <circle cx="7" cy="25" r="1.5" fill="#22d3ee" opacity="0.8"/>
  <circle cx="25" cy="25" r="1.5" fill="#22d3ee" opacity="0.8"/>
  <!-- Center glow node -->
  <circle cx="16" cy="16" r="4" fill="#00f5ff" opacity="0.15"/>
  <circle cx="16" cy="16" r="2.5" fill="#00f5ff" opacity="0.9"/>
</svg>
